<svg xmlns="http://www.w3.org/2000/svg" viewBox="0 0 533.48 148.21"><defs><style>.cls-1,.cls-4{fill:#000017;}.cls-1,.cls-2,.cls-3{fill-rule:evenodd;}.cls-2{fill:#a1daf8;}.cls-3,.cls-5{fill:#79b9e6;}.cls-6{fill:#adadad;}</style></defs><g id="Шар_2" data-name="Шар 2"><g id="Layer_1" data-name="Layer 1"><path class="cls-1" d="M9.62,123.31c16.59,24,49,19.21,72.25-10.62,18.75-24,25.94-56.93,19.39-81.37,5,21.75-1.55,50.25-17.91,71.19-21,26.81-50,31.09-64.94,9.54S8.41,51.3,29.34,24.49C45.7,3.55,67-3.64,82.67,4.49c-17.54-10.36-42.15-2.6-60.9,21.4C-1.55,55.71-7,99.34,9.62,123.31Z"/><path class="cls-2" d="M29,129.37c15.21,22,44.87,17.62,66.24-9.74C112.39,97.63,119,67.44,113,45c4.6,19.93-1.42,46.07-16.42,65.27C77.34,134.88,50.68,138.8,37,119.05S27.82,63.34,47,38.76C62,19.56,81.55,13,95.91,20.41,79.82,10.92,57.26,18,40.07,40,18.72,67.39,13.73,107.39,29,129.37Z"/><path class="cls-3" d="M48,135.82c13,18.74,38.27,15,56.49-8.3,14.66-18.76,20.28-44.51,15.16-63.61,3.92,17-1.21,39.28-14,55.65-16.38,21-39.11,24.3-50.77,7.46s-7.83-47.49,8.54-68.46c12.79-16.37,29.46-22,41.7-15.64-13.72-8.1-32.95-2-47.61,16.73C39.33,83,35.07,117.08,48,135.82Z"/><path class="cls-4" d="M181.11,122.56q-6.18,3.27-15.41,3.27-11.91,0-19.07-7.67T139.47,98q0-13.4,8.05-21.64T168,68.15a32.66,32.66,0,0,1,13.15,2.3v7a26.59,26.59,0,0,0-13.23-3.35q-9.62,0-15.59,6.42t-6,17.17q0,10.19,5.58,16.25t14.65,6a27.53,27.53,0,0,0,14.56-3.74Z"/><path class="cls-4" d="M220.15,124.89h-6.38v-6.23h-.15a13.36,13.36,0,0,1-12.26,7.17q-6,0-9.32-3.16a10.93,10.93,0,0,1-3.37-8.37q0-11.16,13.16-13l11.95-1.67q0-10.16-8.22-10.16a19.59,19.59,0,0,0-13,4.91V87.84a24.72,24.72,0,0,1,13.54-3.69q14,0,14,14.87Zm-6.38-20.16-9.62,1.32a15.53,15.53,0,0,0-6.69,2.2c-1.51,1-2.26,2.92-2.26,5.59a6.1,6.1,0,0,0,2.08,4.76,8.07,8.07,0,0,0,5.55,1.85,10.27,10.27,0,0,0,7.84-3.32,11.88,11.88,0,0,0,3.1-8.43Z"/><path class="cls-4" d="M265.26,124.89h-6.39V102.15q0-12.69-9.26-12.69a10,10,0,0,0-7.92,3.6,13.37,13.37,0,0,0-3.13,9.09v22.73h-6.38V85h6.38v6.61h.15q4.53-7.56,13.08-7.55,6.54,0,10,4.22t3.47,12.21Z"/><path class="cls-4" d="M305.81,124.89h-6.38v-6.23h-.16A13.36,13.36,0,0,1,287,125.83q-6,0-9.32-3.16a11,11,0,0,1-3.36-8.37q0-11.16,13.15-13l11.95-1.67q0-10.16-8.21-10.16a19.59,19.59,0,0,0-13,4.91V87.84a24.63,24.63,0,0,1,13.54-3.69q14.07,0,14.05,14.87Zm-6.38-20.16-9.61,1.32a15.66,15.66,0,0,0-6.7,2.2c-1.5,1-2.25,2.92-2.25,5.59A6.1,6.1,0,0,0,283,118.6a8,8,0,0,0,5.54,1.85,10.27,10.27,0,0,0,7.85-3.32,11.92,11.92,0,0,0,3.09-8.43Z"/><path class="cls-4" d="M351.86,124.89h-6.39v-6.74h-.15q-4.44,7.71-13.7,7.71a14.91,14.91,0,0,1-12-5.36q-4.5-5.34-4.49-14.57,0-9.89,5-15.84a16.43,16.43,0,0,1,13.27-6q8.22,0,12,6.46h.15V65.89h6.39Zm-6.39-18V101a11.36,11.36,0,0,0-3.19-8.17,10.67,10.67,0,0,0-8.09-3.35A11,11,0,0,0,325,93.77q-3.37,4.26-3.38,11.82,0,6.87,3.22,10.87a10.51,10.51,0,0,0,8.62,4,10.91,10.91,0,0,0,8.66-3.85,14.35,14.35,0,0,0,3.35-9.74Z"/><path class="cls-4" d="M393.31,124.89h-6.39v-6.23h-.15a13.36,13.36,0,0,1-12.26,7.17q-6,0-9.32-3.16a10.93,10.93,0,0,1-3.37-8.37q0-11.16,13.16-13l11.94-1.67q0-10.16-8.21-10.16a19.59,19.59,0,0,0-13,4.91V87.84a24.67,24.67,0,0,1,13.55-3.69q14,0,14.05,14.87Zm-6.39-20.16-9.61,1.32a15.53,15.53,0,0,0-6.69,2.2c-1.51,1-2.26,2.92-2.26,5.59a6.1,6.1,0,0,0,2.08,4.76,8.07,8.07,0,0,0,5.55,1.85,10.27,10.27,0,0,0,7.84-3.32,11.92,11.92,0,0,0,3.09-8.43Z"/><path class="cls-5" d="M445.51,126h-8L408.78,81.51A19.91,19.91,0,0,1,407,78h-.23a56,56,0,0,1,.31,7.66V126h-6.55V70.15H409L437,113.94c1.17,1.82,1.92,3.06,2.26,3.74h.15a59.47,59.47,0,0,1-.39-8.22V70.15h6.54Z"/><path class="cls-5" d="M489.73,126H460.15V70.15h28.33v6H466.69V94.72h20.16v5.87H466.69v19.54h23Z"/><path class="cls-5" d="M533.48,76.15H517.36v49.9h-6.54V76.15H494.75v-6h38.73Z"/><path class="cls-6" d="M153.05,131.91a1,1,0,0,1-.92,1.07,1.2,1.2,0,0,1-.19,0,1,1,0,0,1-1.06-.94v-.13a1.07,1.07,0,0,1,1-1.1H152a1.07,1.07,0,0,1,1.08,1A.2.2,0,0,1,153.05,131.91Zm-2,12.35v-9.64h1.75v9.64Z"/><path class="cls-6" d="M157.46,134.62v3.88H162v-3.88h1.75v9.64H162V139.9h-4.56v4.36H155.7v-9.64Z"/><path class="cls-6" d="M173.1,134.62V136h-3v8.27h-1.75V136h-3v-1.37Z"/><path class="cls-6" d="M175.35,139.76a3.09,3.09,0,0,0,2.77,3.38,4.21,4.21,0,0,0,.5,0,6.25,6.25,0,0,0,2.67-.5l.32,1.25a7.94,7.94,0,0,1-3.23.62c-3,0-4.74-2-4.74-4.88s1.71-5.18,4.52-5.18c3.17,0,4,2.75,4,4.52a3.78,3.78,0,0,1-.06.82Zm5.14-1.26a2.49,2.49,0,0,0-2.12-2.81l-.31,0a2.89,2.89,0,0,0-2.69,2.83Z"/><path class="cls-6" d="M184.36,137.77c0-1.24,0-2.24-.08-3.15h1.55l.1,1.65h0a3.76,3.76,0,0,1,3.43-1.85c2.35,0,4.11,2,4.11,4.88,0,3.47-2.14,5.18-4.41,5.18a3.43,3.43,0,0,1-3-1.51h0v5.24h-1.73Zm1.73,2.57a2.73,2.73,0,0,0,2.67,2.77h0c1.86,0,2.93-1.52,2.93-3.73,0-1.91-1-3.57-2.87-3.57a2.77,2.77,0,0,0-2.65,2.15,3.2,3.2,0,0,0-.12.7Z"/><path class="cls-6" d="M197.39,134.62v3.88H202v-3.88h1.76v9.64H202V139.9h-4.56v4.36h-1.77v-9.64Z"/><path class="cls-6" d="M207.55,139.76a3.08,3.08,0,0,0,2.81,3.34,2.8,2.8,0,0,0,.5,0,6.25,6.25,0,0,0,2.67-.5l.32,1.25a7.94,7.94,0,0,1-3.23.62c-3,0-4.74-2-4.74-4.88s1.71-5.18,4.52-5.18c3.17,0,4,2.75,4,4.52a3.78,3.78,0,0,1-.06.82Zm5.15-1.26a2.49,2.49,0,0,0-2.12-2.81l-.32,0a2.89,2.89,0,0,0-2.69,2.83Z"/><path class="cls-6" d="M223,134.62V136h-3v8.27h-1.76V136h-3v-1.37Z"/><path class="cls-6" d="M236.83,134.62v9.64h-1.76V136h-4.45v8.27h-1.75v-9.64Z"/><path class="cls-6" d="M239.68,137.77c0-1.24,0-2.24-.08-3.15h1.55l.1,1.65h0a3.73,3.73,0,0,1,3.43-1.85c2.35,0,4.1,2,4.1,4.88,0,3.47-2.13,5.18-4.4,5.18a3.41,3.41,0,0,1-3-1.51h0v5.24h-1.73Zm1.73,2.57a2.72,2.72,0,0,0,2.63,2.81h.08c1.85,0,2.93-1.52,2.93-3.73,0-1.91-1-3.57-2.87-3.57a2.77,2.77,0,0,0-2.65,2.15,3.2,3.2,0,0,0-.12.7Z"/><path class="cls-6" d="M259.74,139.36a4.71,4.71,0,0,1-4.3,5.1,4.1,4.1,0,0,1-.5,0c-2.59,0-4.62-1.91-4.62-5s2.13-5.1,4.78-5.1A4.66,4.66,0,0,1,259.74,139.36Zm-7.63.1c0,2.11,1.2,3.71,2.91,3.71s2.93-1.58,2.93-3.75c0-1.63-.82-3.69-2.89-3.69s-2.95,1.92-2.95,3.73Z"/><path class="cls-6" d="M261.89,134.74a21.13,21.13,0,0,1,3.07-.22c1.64,0,4.31.28,4.31,2.41a2.3,2.3,0,0,1-2,2.19h0c1.41.2,2.45,1,2.45,2.37,0,2.53-3.19,2.85-5.09,2.85-1.07,0-2.21-.08-2.73-.12Zm1.73,8.41c.5,0,.86.06,1.39.06,1.2,0,3-.26,3-1.68s-1.41-1.69-3.07-1.69h-1.32Zm0-4.45h1.31c1.3,0,2.63-.38,2.63-1.53,0-1-.83-1.42-2.59-1.42a10.19,10.19,0,0,0-1.35.08Z"/><path class="cls-6" d="M278.69,142a17.9,17.9,0,0,0,.14,2.31h-1.57l-.14-1.21h-.06a3.61,3.61,0,0,1-2.95,1.43,2.75,2.75,0,0,1-2.94-2.55c0-.07,0-.15,0-.22,0-2.33,2.07-3.61,5.8-3.59v-.2a2,2,0,0,0-1.76-2.21,1.55,1.55,0,0,0-.43,0,4.65,4.65,0,0,0-2.53.72l-.4-1.18a6.31,6.31,0,0,1,3.19-.83c3,0,3.66,2,3.66,3.92ZM277,139.34c-1.91,0-4.09.3-4.09,2.17a1.54,1.54,0,0,0,1.39,1.67h.25a2.44,2.44,0,0,0,2.37-1.62A1.77,1.77,0,0,0,277,141Z"/><path class="cls-6" d="M283.14,134.62v4.06c0,1.52,0,2.49-.12,3.87h.06c.6-1.18.91-1.86,1.57-3l3-5h2v9.64H288v-4c0-1.58,0-2.39.12-4h0c-.64,1.26-1,2-1.62,3-.91,1.49-2,3.35-3,5h-2v-9.64Zm1.13-3.93c.06.86.48,1.52,1.28,1.52s1.25-.66,1.35-1.52h1.26a2.44,2.44,0,0,1-2.4,2.48h-.25A2.31,2.31,0,0,1,283,131c0-.12,0-.23,0-.35Z"/><path class="cls-6" d="M300,134.62V143h1l-.1,4.34h-1.37l-.08-3h-6.68l-.1,3h-1.35l-.08-4.32h.81a7.65,7.65,0,0,0,1-2,12.68,12.68,0,0,0,.53-3.82v-2.51Zm-4.91,2.91a12.37,12.37,0,0,1-.51,3.62,8.6,8.6,0,0,1-.76,1.8h4.44v-7h-3.19Z"/><path class="cls-6" d="M304,139.76a3.08,3.08,0,0,0,2.81,3.34,2.8,2.8,0,0,0,.5,0,6.25,6.25,0,0,0,2.67-.5l.32,1.25a7.94,7.94,0,0,1-3.23.62c-3,0-4.74-2-4.74-4.88s1.71-5.18,4.52-5.18c3.17,0,4,2.75,4,4.52a3.78,3.78,0,0,1-.06.82Zm5.14-1.26a2.49,2.49,0,0,0-2.12-2.81l-.31,0A2.89,2.89,0,0,0,304,138.5Z"/><path class="cls-6" d="M313,137.77c0-1.24,0-2.24-.08-3.15h1.55l.1,1.65h0a3.76,3.76,0,0,1,3.43-1.85c2.35,0,4.1,2,4.1,4.88,0,3.47-2.13,5.18-4.4,5.18a3.43,3.43,0,0,1-3-1.51h0v5.24H313Zm1.73,2.57a2.73,2.73,0,0,0,2.67,2.77h0c1.86,0,2.93-1.52,2.93-3.73,0-1.91-1-3.57-2.87-3.57a2.77,2.77,0,0,0-2.65,2.15,3.2,3.2,0,0,0-.12.7Z"/></g></g></svg>