<svg width="36" height="36" viewBox="0 0 36 36" fill="none" xmlns="http://www.w3.org/2000/svg">
<path d="M18 36C27.9411 36 36 27.9411 36 18C36 8.05887 27.9411 0 18 0C8.05887 0 0 8.05887 0 18C0 27.9411 8.05887 36 18 36Z" fill="#194C80"/>
<path d="M35.9989 18C35.9989 17.71 35.9921 17.4216 35.9785 17.135L25.1868 6.3432L22.3037 7.33672L9.35156 27.4832L17.8679 35.9995C17.9115 35.9998 17.9552 36 17.9989 36C27.9401 36 35.9989 27.9412 35.9989 18Z" fill="#113C67"/>
<path d="M18.0007 29.3911C24.2704 29.3911 29.353 24.3085 29.353 18.0388C29.353 11.7691 24.2704 6.68646 18.0007 6.68646C11.731 6.68646 6.64844 11.7691 6.64844 18.0388C6.64844 24.3085 11.731 29.3911 18.0007 29.3911Z" fill="white"/>
<path d="M29.3516 18.0387C29.3516 11.7718 24.2736 6.6911 18.0078 6.68646V29.3909C24.2736 29.3863 29.3516 24.3056 29.3516 18.0387Z" fill="#E9EDF5"/>
<path d="M18.0009 30.8502C10.9366 30.8502 5.18945 25.103 5.18945 18.0387C5.18945 10.9745 10.9366 5.22729 18.0009 5.22729H22.8721V7.33667H18.0009C12.0998 7.33667 7.29883 12.1376 7.29883 18.0387C7.29883 23.9398 12.0998 28.7408 18.0009 28.7408C23.902 28.7408 28.7029 23.9398 28.7029 18.0387H30.8123C30.8123 25.103 25.0652 30.8502 18.0009 30.8502Z" fill="#F3D55B"/>
<path d="M30.8107 18.0387H28.7014C28.7014 23.937 23.905 28.736 18.0078 28.7406V30.85C25.0682 30.8454 30.8107 25.1001 30.8107 18.0387Z" fill="#F0C419"/>
<path d="M19.6791 24.2645L16.7715 17.7926L20.4722 14.324L21.8667 15.8117L19.2281 18.2848L21.5391 23.4288L19.6791 24.2645Z" fill="#555A66"/>
<path d="M21.8662 15.8117L20.4718 14.324L18.0078 16.6334V20.5454L19.6786 24.2645L21.5386 23.4288L19.2276 18.2848L21.8662 15.8117Z" fill="#333940"/>
<path d="M16.9805 8.30322H19.0195V11.3468H16.9805V8.30322Z" fill="#CDD2E1"/>
<path d="M18.0078 8.30322H19.0188V11.3468H18.0078V8.30322Z" fill="#AFB4C8"/>
<path d="M16.9805 24.7305H19.0195V27.7741H16.9805V24.7305Z" fill="#CDD2E1"/>
<path d="M18.0078 24.7305H19.0188V27.7741H18.0078V24.7305Z" fill="#AFB4C8"/>
<path d="M24.6895 17.0192H27.7331V19.0582H24.6895V17.0192Z" fill="#AFB4C8"/>
<path d="M8.26367 17.0192H11.3072V19.0582H8.26367V17.0192Z" fill="#CDD2E1"/>
<path d="M10.3926 11.8755L11.8342 10.4339L13.986 12.5857L12.5444 14.0273L10.3926 11.8755Z" fill="#CDD2E1"/>
<path d="M22.0059 23.4916L23.4475 22.05L25.5993 24.2019L24.1577 25.6435L22.0059 23.4916Z" fill="#AFB4C8"/>
<path d="M22.0078 12.5872L24.1596 10.4354L25.6013 11.877L23.4494 14.0288L22.0078 12.5872Z" fill="#AFB4C8"/>
<path d="M10.3926 24.2006L12.5444 22.0487L13.986 23.4903L11.8342 25.6422L10.3926 24.2006Z" fill="#CDD2E1"/>
<path d="M20.9124 2.06848L19.4209 3.56002L21.0882 5.22734H18.0078V7.33672H21.2105L19.4209 9.12638L20.9124 10.6179L25.1871 6.3432L20.9124 2.06848Z" fill="#F0C419"/>
</svg>
