<svg width="36" height="36" viewBox="0 0 36 36" fill="none" xmlns="http://www.w3.org/2000/svg">
<g clip-path="url(#clip0)">
<path d="M8.74434 19.8518C5.87654 23.0144 0.208678 21.9935 0.208678 21.9935L2.25946 19.7359L0 17.6839L13.921 14.6617L8.74434 19.8518Z" fill="#F29C1F"/>
<path d="M13.8906 14.932L15.5838 0.513732L17.8427 2.56268L19.8928 0.305054C19.8928 0.305054 21.4573 5.84478 18.5871 9.00729L13.8906 14.932Z" fill="#F29C1F"/>
<path d="M14.1352 13.9118L10.9531 11.9697C10.9531 11.9697 6.95714 9.52899 3.841 12.5469C3.66535 12.7216 3.54412 12.9435 3.49199 13.1857C3.09712 14.7957 3.30595 16.4945 4.07897 17.9609C4.36629 18.4629 4.86077 18.8122 5.42988 18.9152C6.48792 19.1026 8.38982 19.2813 9.92866 18.5461L14.1352 13.9118Z" fill="#F0C419"/>
<path d="M13.1935 14.9491L10.953 11.9702C10.953 11.9702 8.1389 8.22927 10.8395 4.83551C10.9965 4.64389 11.2057 4.50188 11.4417 4.4267C13.006 3.8773 14.7174 3.92072 16.2517 4.54873C16.7786 4.78487 17.1745 5.24147 17.3335 5.79653C17.7989 7.26232 17.8225 8.83268 17.4013 10.3118L13.1935 14.9491Z" fill="#F0C419"/>
<path d="M32.3395 19.2203V34.4746C32.3375 35.1477 31.7923 35.6929 31.1192 35.6949H12.8141C12.1409 35.6929 11.5958 35.1477 11.5938 34.4746V18.6102H31.7293C32.0663 18.6102 32.3395 18.8834 32.3395 19.2203Z" fill="#E64C3C"/>
<path d="M18.3422 18.6102L11.5938 26.0481V18.6102H18.3422Z" fill="#C03A2B"/>
<path d="M19.5254 18.6102H24.4067V35.6949H19.5254V18.6102Z" fill="#F0C419"/>
<path d="M29.8992 22.8813C29.5622 22.8813 29.2891 22.6081 29.2891 22.2711V21.0508C29.2891 20.7138 29.5622 20.4406 29.8992 20.4406C30.2362 20.4406 30.5094 20.7138 30.5094 21.0508V22.2711C30.5094 22.6081 30.2362 22.8813 29.8992 22.8813Z" fill="#C03A2B"/>
<path d="M29.8992 33.8644C29.5622 33.8644 29.2891 33.5912 29.2891 33.2542V24.7119C29.2891 24.3749 29.5622 24.1017 29.8992 24.1017C30.2362 24.1017 30.5094 24.3749 30.5094 24.7119V33.2542C30.5094 33.5912 30.2362 33.8644 29.8992 33.8644Z" fill="#C03A2B"/>
<path d="M14.034 33.8644C13.697 33.8644 13.4238 33.5912 13.4238 33.2542V24.7119C13.4238 24.3749 13.697 24.1017 14.034 24.1017C14.371 24.1017 14.6442 24.3749 14.6442 24.7119V33.2542C14.6442 33.5912 14.371 33.8644 14.034 33.8644Z" fill="#C03A2B"/>
<path d="M9.92638 13.7959C9.05994 13.5091 7.21723 13.1064 5.66129 14.1803C5.52095 14.2779 5.49655 14.4731 5.62468 14.5464C6.99562 15.3155 8.61785 15.5023 10.1277 15.065L9.92638 13.7959Z" fill="#F29C1F"/>
<path d="M12.6671 10.7695C12.301 9.93354 11.7274 8.13964 12.6426 6.49219C12.722 6.33964 12.9233 6.29693 13.0026 6.41897C13.9069 7.70565 14.2504 9.30421 13.9545 10.8488V10.8549L12.6671 10.7695Z" fill="#F29C1F"/>
<path d="M26.0585 13.9076C25.8202 13.6694 25.434 13.6694 25.1957 13.9076L25.0169 14.0864L24.8381 13.9076C24.5987 13.6764 24.2181 13.6797 23.9828 13.915C23.7474 14.1504 23.7441 14.531 23.9754 14.7704L24.1541 14.9491L23.9754 15.1279C23.8167 15.2811 23.7531 15.508 23.809 15.7213C23.8648 15.9347 24.0314 16.1013 24.2447 16.1571C24.4581 16.2129 24.6849 16.1493 24.8381 15.9907L25.0169 15.8119L25.1957 15.9907C25.4351 16.2219 25.8157 16.2186 26.051 15.9833C26.2864 15.7479 26.2897 15.3673 26.0585 15.1279L25.8797 14.9491L26.0585 14.7704C26.2967 14.5321 26.2967 14.1459 26.0585 13.9076Z" fill="#955BA5"/>
<path d="M32.7714 13.2974C32.5331 13.0592 32.1468 13.0592 31.9086 13.2974L31.7298 13.4761L31.551 13.2974C31.3116 13.0661 30.931 13.0694 30.6957 13.3048C30.4603 13.5402 30.457 13.9207 30.6882 14.1601L30.867 14.3389L30.6882 14.5177C30.5296 14.6709 30.466 14.8978 30.5219 15.1111C30.5777 15.3244 30.7443 15.491 30.9576 15.5469C31.171 15.6027 31.3978 15.5391 31.551 15.3805L31.7298 15.2017L31.9086 15.3805C32.148 15.6117 32.5286 15.6084 32.7639 15.373C32.9993 15.1377 33.0026 14.7571 32.7714 14.5177L32.5926 14.3389L32.7714 14.1601C33.0096 13.9219 33.0096 13.5356 32.7714 13.2974Z" fill="#955BA5"/>
<path d="M35.6414 9.45766L35.8202 9.27888C36.0514 9.03946 36.0481 8.65889 35.8128 8.42353C35.5774 8.18816 35.1968 8.18486 34.9574 8.41609L34.7786 8.59487L34.5999 8.41609C34.3604 8.18486 33.9799 8.18816 33.7445 8.42353C33.5091 8.65889 33.5058 9.03946 33.7371 9.27888L33.9159 9.45766L33.7371 9.63644C33.5785 9.78964 33.5148 10.0165 33.5707 10.2298C33.6265 10.4432 33.7931 10.6098 34.0065 10.6656C34.2198 10.7215 34.4467 10.6578 34.5999 10.4992L34.7786 10.3204L34.9574 10.4992C35.1968 10.7305 35.5774 10.7271 35.8128 10.4918C36.0481 10.2564 36.0514 9.87586 35.8202 9.63644L35.6414 9.45766Z" fill="#F0C419"/>
<path d="M29.7206 9.63641C29.4823 9.39821 29.0961 9.39821 28.8578 9.63641L28.679 9.81519L28.5002 9.63641C28.2608 9.40518 27.8803 9.40848 27.6449 9.64385C27.4095 9.87921 27.4062 10.2598 27.6375 10.4992L27.8162 10.678L27.6375 10.8568C27.4788 11.01 27.4152 11.2368 27.4711 11.4501C27.5269 11.6635 27.6935 11.8301 27.9068 11.8859C28.1202 11.9418 28.347 11.8782 28.5002 11.7195L28.679 11.5408L28.8578 11.7195C29.0972 11.9508 29.4778 11.9475 29.7131 11.7121C29.9485 11.4767 29.9518 11.0962 29.7206 10.8568L29.5418 10.678L29.7206 10.4992C29.9588 10.2609 29.9588 9.87468 29.7206 9.63641Z" fill="#F0C419"/>
<path d="M30.9397 6.83814L31.1185 6.65936L31.2973 6.83814C31.5367 7.06937 31.9172 7.06607 32.1526 6.8307C32.388 6.59534 32.3913 6.21478 32.16 5.97536L31.9813 5.79658L32.16 5.6178C32.3913 5.37838 32.388 4.99782 32.1526 4.76245C31.9172 4.52709 31.5367 4.52378 31.2973 4.75502L31.1185 4.9338L30.9397 4.75502C30.7003 4.52378 30.3197 4.52709 30.0844 4.76245C29.849 4.99782 29.8457 5.37838 30.0769 5.6178L30.2557 5.79658L30.0769 5.97536C29.9183 6.12856 29.8547 6.35542 29.9105 6.56875C29.9664 6.78209 30.133 6.94869 30.3463 7.00453C30.5596 7.06037 30.7865 6.99675 30.9397 6.83814Z" fill="#955BA5"/>
<path d="M7.11108 21.6554L20.2322 7.18702C20.6851 6.68761 21.4571 6.64991 21.9565 7.10282L24.2172 9.15299C24.4669 9.37944 24.4858 9.76545 24.2593 10.0152L10.3181 25.3878C10.0917 25.6375 9.70567 25.6563 9.45597 25.4299L7.19529 23.3797C6.69587 22.9268 6.65817 22.1548 7.11108 21.6554Z" fill="#E64C3C"/>
<path d="M11.2109 17.1339L16.1314 11.7082L19.7484 14.9885L14.828 20.4141L11.2109 17.1339Z" fill="#F0C419"/>
<path d="M15.7152 12.1704L14.8115 11.3491C14.3322 10.914 13.6995 10.6871 13.0529 10.7184C12.4062 10.7498 11.7985 11.0368 11.3635 11.5163L10.5434 12.4212C9.63763 13.4194 9.71248 14.9628 10.7106 15.8686L11.6142 16.6887L15.7152 12.1704Z" fill="#F3D55B"/>
</g>
<defs>
<clipPath id="clip0">
<rect width="36" height="36" fill="white"/>
</clipPath>
</defs>
</svg>
