<svg width="36" height="36" viewBox="0 0 36 36" fill="none" xmlns="http://www.w3.org/2000/svg">
<path d="M9.60039 10.2V3.59998H2.40039V10.2C2.40039 12.1884 4.01202 13.8 6.00039 13.8C7.98876 13.8 9.60039 12.1884 9.60039 10.2Z" fill="#194C80"/>
<path d="M8.40159 0.599976H3.60156V3.6H8.40159V0.599976Z" fill="#E6E7E8"/>
<path d="M30.0004 22.2C28.012 22.2 26.4004 23.8116 26.4004 25.8V32.4H33.6004V25.8C33.6004 23.8116 31.9888 22.2 30.0004 22.2Z" fill="#194C80"/>
<path d="M32.3996 32.4H27.5996V35.4H32.3996V32.4Z" fill="#E6E7E8"/>
<path d="M30.5988 21.648V6.60002C30.5988 2.95502 27.6437 0 23.9987 0C20.3537 0 17.3987 2.95502 17.3987 6.60002V29.4C17.3987 32.3826 14.9813 34.8 11.9987 34.8C9.01613 34.8 6.59871 32.3826 6.59871 29.4V14.352C8.66273 14.0526 10.1945 12.2856 10.1987 10.2V3.6C10.1987 3.26883 9.92991 3.00002 9.59873 3.00002H8.99876V0.599977C8.99876 0.268805 8.72995 0 8.39878 0H3.59876C3.26759 0 2.99878 0.268805 2.99878 0.599977V2.99995H2.3988C2.06763 2.99995 1.79883 3.26876 1.79883 3.59993V10.2C1.80305 12.2856 3.33481 14.0526 5.39883 14.352V29.4C5.39883 33.045 8.35385 36 11.9989 36C15.6439 36 18.5989 33.045 18.5989 29.4V6.60002C18.5989 3.61744 21.0163 1.20002 23.9989 1.20002C26.9815 1.20002 29.3989 3.61744 29.3989 6.60002V21.648C27.3349 21.9474 25.8031 23.7144 25.7989 25.8V32.4C25.7989 32.7312 26.0677 33 26.3988 33H26.9988V35.4C26.9988 35.7311 27.2676 35.9999 27.5987 35.9999H32.3988C32.7299 35.9999 32.9987 35.7311 32.9987 35.4V33H33.5987C33.9299 33 34.1987 32.7312 34.1987 32.4V25.8C34.1945 23.7144 32.6628 21.9474 30.5988 21.648ZM4.19873 1.20002H7.79873V3.00002H4.19873V1.20002ZM2.99878 10.2V4.19998H8.99876V10.2C8.99876 11.8566 7.65537 13.2 5.99873 13.2C4.3421 13.2 2.99878 11.8566 2.99878 10.2ZM31.7988 34.8H28.1988V33H31.7988V34.8ZM32.9987 31.8H26.9988V25.8C26.9988 24.1434 28.3421 22.8 29.9988 22.8C31.6554 22.8 32.9988 24.1434 32.9988 25.8V31.8H32.9987Z" fill="#113C67"/>
</svg>
