<svg width="36" height="36" viewBox="0 0 36 36" fill="none" xmlns="http://www.w3.org/2000/svg">
<g clip-path="url(#clip0)">
<path d="M30.1597 25.1776V29.2215C30.1597 30.1078 29.5069 30.941 28.35 31.6734C28.1855 31.7743 28.0104 31.8803 27.8193 31.9759C27.8193 31.9759 27.814 31.9759 27.814 31.9812C27.6495 32.0714 27.4744 32.1564 27.2887 32.2466C26.6678 32.5385 25.9513 32.8091 25.1659 33.0479C24.9907 33.101 24.8155 33.154 24.6352 33.2071H24.6299C24.4601 33.2549 24.2849 33.3026 24.1045 33.3504C23.4359 33.5202 22.73 33.6741 21.9817 33.8015C21.8066 33.8333 21.6315 33.8652 21.451 33.8918H21.4457C21.2706 33.9183 21.1008 33.95 20.9204 33.9713C20.2358 34.0721 19.5299 34.1518 18.7975 34.2154C18.6224 34.2313 18.4472 34.2473 18.2669 34.2579H18.2616C18.0864 34.2738 17.9166 34.2845 17.7362 34.2951C17.0463 34.3375 16.3352 34.3641 15.6134 34.3694C15.4383 34.3747 15.2631 34.3747 15.0827 34.3747H15.0774C14.897 34.3747 14.7272 34.3747 14.552 34.3694C13.8303 34.3641 13.1192 34.3375 12.4292 34.2951C12.2488 34.2845 12.0737 34.2739 11.8986 34.2579H11.8932C11.7128 34.2473 11.543 34.2313 11.3679 34.2154C10.6355 34.1518 9.92971 34.0721 9.24506 33.9713C9.06463 33.9501 8.88951 33.9183 8.71439 33.8918H8.70909C8.52866 33.8652 8.35884 33.8333 8.18372 33.8015C7.43542 33.6741 6.72963 33.5202 6.0609 33.3504C5.88047 33.3026 5.70005 33.2549 5.53023 33.2071H5.52493C5.3445 33.154 5.17468 33.101 4.99956 33.0479C4.21413 32.8091 3.49766 32.5385 2.87674 32.2466C2.69101 32.1617 2.51589 32.0714 2.34607 31.9759C2.34607 31.9759 2.34076 31.9759 2.34076 31.9706C2.15504 31.8804 1.97991 31.7796 1.8154 31.6735C0.658049 30.9463 0 30.1078 0 29.2215V25.1776H30.1597Z" fill="#F6C358"/>
<path d="M30.1597 25.1776C30.1597 26.0639 29.5069 26.8971 28.35 27.6189C28.1802 27.7303 28.0051 27.8364 27.814 27.9321C27.6495 28.0275 27.4743 28.1124 27.2886 28.2027C26.6677 28.4946 25.9512 28.7599 25.1658 29.004C24.9907 29.0571 24.8155 29.1102 24.6351 29.1631H24.6298C24.46 29.211 24.2849 29.2588 24.1044 29.3064C23.4358 29.4763 22.7299 29.6302 21.9816 29.7576C21.8065 29.7895 21.6314 29.8213 21.451 29.8478H21.4456C21.2705 29.8744 21.1007 29.9062 20.9203 29.9274C20.2357 30.0283 19.5298 30.1079 18.7975 30.1716C18.6223 30.1875 18.4471 30.2034 18.2668 30.214H18.2615C18.0864 30.2299 17.9166 30.2405 17.7361 30.2512C17.0462 30.2937 16.3351 30.3202 15.6133 30.3255C15.4382 30.3308 15.2631 30.3308 15.0826 30.3308H15.0773C14.8969 30.3308 14.7271 30.3308 14.552 30.3255C13.8302 30.3203 13.1191 30.2937 12.4291 30.2512C12.2487 30.2405 12.0736 30.2299 11.8985 30.214H11.8932C11.7127 30.2034 11.5429 30.1875 11.3678 30.1716C10.6354 30.1079 9.92963 30.0283 9.24498 29.9274C9.06456 29.9062 8.88943 29.8744 8.71431 29.8478H8.70901C8.52858 29.8213 8.35877 29.7895 8.18365 29.7576C7.43534 29.6302 6.72956 29.4763 6.06082 29.3064C5.88039 29.2588 5.69997 29.211 5.53015 29.1631H5.52485C5.34442 29.1102 5.17461 29.0571 4.99948 29.004C4.21405 28.7652 3.49758 28.4946 2.87666 28.2027C2.69093 28.1177 2.51581 28.0275 2.34599 27.9321C2.34599 27.9321 2.34069 27.9321 2.34069 27.9268C2.15496 27.8364 1.97984 27.7356 1.81532 27.6296C0.65805 26.9024 0 26.0639 0 25.1776C0 22.3331 6.75577 20.0245 15.0825 20.0245C23.4092 20.0245 30.1597 22.3331 30.1597 25.1776Z" fill="#FCD462"/>
<path d="M15.0356 28.8908C14.8854 28.8908 14.7427 28.8905 14.5954 28.8861C13.901 28.8807 13.2131 28.8566 12.5167 28.8139C12.3471 28.8038 12.1867 28.7942 12.0264 28.7799L11.9622 28.7741H11.9372C11.7951 28.7649 11.6597 28.7523 11.5209 28.7396C10.7566 28.6731 10.09 28.5964 9.45397 28.5029C9.30753 28.4851 9.20574 28.4683 9.10473 28.4518L8.81853 28.4078C8.7119 28.3904 8.44092 28.3407 8.44092 28.3407C7.75681 28.2245 7.09914 28.0848 6.41403 27.9109C6.25536 27.8687 6.08239 27.8231 5.91926 27.7771L5.41558 27.6256C4.8198 27.4445 4.27068 27.245 3.77968 27.0313V27.0268L2.98072 26.6373L2.72242 26.492H2.71189C2.67322 26.4688 2.63409 26.4446 2.59519 26.4196C1.73834 25.8807 1.43945 25.4153 1.43945 25.1776C1.43945 23.8687 6.6189 21.4647 15.0819 21.4647C23.5415 21.4647 28.719 23.8686 28.719 25.1776C28.719 25.4146 28.4225 25.8761 27.5872 26.3971C27.4111 26.5122 27.2872 26.5851 27.1688 26.6443L27.0899 26.687C26.9589 26.7632 26.8187 26.8298 26.6713 26.9015C26.1458 27.1485 25.4938 27.3939 24.7377 27.629L24.2392 27.7771C24.076 27.8228 23.908 27.8687 23.7348 27.9147C23.0645 28.0846 22.4071 28.2243 21.7396 28.338C21.5975 28.3637 21.4663 28.3876 21.3346 28.4088L21.043 28.4537C20.9474 28.4694 20.852 28.4856 20.7524 28.4973C20.0732 28.5965 19.4067 28.6731 18.6719 28.7371C18.5198 28.7509 18.3722 28.7643 18.2214 28.7742L18.1321 28.78C17.972 28.7943 17.8164 28.8039 17.6514 28.8135C16.9508 28.8566 16.2629 28.8808 15.6023 28.8855C15.4225 28.8906 15.2718 28.8909 15.1195 28.8909C15.1071 28.8908 15.0492 28.8908 15.0356 28.8908Z" fill="#F6C358"/>
<path d="M2.87579 28.2026V32.2465C2.69006 32.1616 2.51494 32.0714 2.34512 31.9758C2.34512 31.9758 2.33982 31.9758 2.33982 31.9705C2.15409 31.8803 1.97897 31.7795 1.81445 31.6734V27.6295C1.97897 27.7355 2.15409 27.8364 2.33982 27.9267C2.33982 27.932 2.34512 27.932 2.34512 27.932C2.51494 28.0275 2.69006 28.1177 2.87579 28.2026Z" fill="#DC8744"/>
<path d="M6.05938 29.3063V33.3503C5.87896 33.3025 5.69853 33.2548 5.52871 33.207H5.52341C5.34298 33.1539 5.17317 33.101 4.99805 33.0478V29.0039C5.17317 29.0569 5.34298 29.1101 5.52341 29.163H5.52871C5.69853 29.2109 5.87896 29.2587 6.05938 29.3063Z" fill="#DC8744"/>
<path d="M9.24493 29.9274V33.9713C9.0645 33.9501 8.88938 33.9183 8.71426 33.8917H8.70896C8.52853 33.8652 8.35871 33.8333 8.18359 33.8015V29.7576C8.35871 29.7895 8.52853 29.8212 8.70896 29.8477H8.71426C8.88938 29.8743 9.0645 29.9062 9.24493 29.9274Z" fill="#DC8744"/>
<path d="M12.4285 30.2511V34.2951C12.2481 34.2845 12.073 34.2739 11.8979 34.2579H11.8926C11.7121 34.2473 11.5423 34.2313 11.3672 34.2154V30.1715C11.5423 30.1874 11.7121 30.2033 11.8926 30.2139H11.8979C12.073 30.2298 12.248 30.2404 12.4285 30.2511Z" fill="#DC8744"/>
<path d="M15.6121 30.3253V34.3692C15.437 34.3746 15.2619 34.3746 15.0814 34.3746H15.0761C14.8957 34.3746 14.7259 34.3746 14.5508 34.3692V30.3253C14.7259 30.3306 14.8957 30.3306 15.0761 30.3306H15.0814C15.2619 30.3306 15.437 30.3306 15.6121 30.3253Z" fill="#DC8744"/>
<path d="M18.7976 30.1715V34.2154C18.6225 34.2313 18.4473 34.2473 18.267 34.2579H18.2617C18.0866 34.2738 17.9168 34.2845 17.7363 34.2951V30.2511C17.9168 30.2405 18.0866 30.2299 18.2617 30.2139H18.267C18.4473 30.2033 18.6225 30.1874 18.7976 30.1715Z" fill="#DC8744"/>
<path d="M21.9813 29.7576V33.8015C21.8061 33.8333 21.631 33.8652 21.4506 33.8917H21.4453C21.2702 33.9183 21.1003 33.95 20.9199 33.9713V29.9274C21.1003 29.9062 21.2702 29.8743 21.4453 29.8477H21.4506C21.631 29.8212 21.8061 29.7894 21.9813 29.7576Z" fill="#DC8744"/>
<path d="M25.1649 29.0039V33.0478C24.9897 33.101 24.8145 33.1539 24.6342 33.207H24.6289C24.4591 33.2548 24.2839 33.3025 24.1035 33.3503V29.3063C24.2839 29.2587 24.4591 29.2109 24.6289 29.163H24.6342C24.8145 29.1101 24.9897 29.0569 25.1649 29.0039Z" fill="#DC8744"/>
<path d="M28.3484 27.6188V31.6734C28.1839 31.7742 28.0088 31.8803 27.8178 31.9759C27.8178 31.9759 27.8125 31.9759 27.8125 31.9812C27.648 32.0714 27.4728 32.1564 27.2871 32.2466V28.2026C27.4728 28.1124 27.648 28.0275 27.8125 27.932C28.0035 27.8364 28.1786 27.7302 28.3484 27.6188Z" fill="#DC8744"/>
<path d="M36.0011 19.0446V23.0885C36.0011 23.9747 35.3483 24.808 34.1914 25.5404C34.0269 25.6412 33.8518 25.7473 33.6608 25.8429C33.6608 25.8429 33.6555 25.8429 33.6555 25.8482C33.491 25.9384 33.3158 26.0234 33.1301 26.1136C32.5092 26.4054 31.7927 26.6761 31.0073 26.9149C30.8322 26.968 30.657 27.021 30.4766 27.0741H30.4713C30.3015 27.1218 30.1264 27.1696 29.9459 27.2174C29.2773 27.3872 28.5714 27.541 27.8231 27.6685C27.648 27.7003 27.4729 27.7322 27.2924 27.7587H27.2871C27.112 27.7853 26.9422 27.817 26.7618 27.8383C26.0772 27.9391 25.3713 28.0188 24.639 28.0824C24.4638 28.0983 24.2887 28.1143 24.1083 28.1249H24.103C23.9279 28.1408 23.758 28.1515 23.5776 28.1621C22.8877 28.2045 22.1766 28.2311 21.4548 28.2364C21.2797 28.2417 21.1046 28.2417 20.9241 28.2417H20.9188C20.7384 28.2417 20.5686 28.2417 20.3935 28.2364C19.6717 28.2311 18.9606 28.2045 18.2706 28.1621C18.0902 28.1515 17.9151 28.1409 17.74 28.1249H17.7347C17.5542 28.1143 17.3844 28.0983 17.2093 28.0824C16.4769 28.0187 15.7711 27.9391 15.0865 27.8383C14.906 27.8171 14.7309 27.7853 14.5558 27.7587H14.5505C14.3701 27.7322 14.2003 27.7003 14.0251 27.6685C13.2768 27.541 12.571 27.3872 11.9023 27.2174C11.7219 27.1696 11.5415 27.1218 11.3716 27.0741H11.3663C11.1859 27.021 11.0161 26.968 10.841 26.9149C10.0555 26.6761 9.33907 26.4054 8.71815 26.1136C8.53242 26.0287 8.3573 25.9384 8.18748 25.8429C8.18748 25.8429 8.18218 25.8429 8.18218 25.8376C7.99645 25.7474 7.82133 25.6466 7.65681 25.5405C6.49992 24.8134 5.8418 23.9748 5.8418 23.0886V19.0447H36.0011V19.0446Z" fill="#F6C358"/>
<path d="M36.0011 19.0446C36.0011 19.9309 35.3484 20.7641 34.1915 21.4859C34.0217 21.5973 33.8466 21.7034 33.6555 21.7991C33.4909 21.8945 33.3158 21.9794 33.1301 22.0697C32.5092 22.3615 31.7927 22.6269 31.0073 22.871C30.8322 22.924 30.657 22.9772 30.4766 23.0302H30.4713C30.3015 23.078 30.1264 23.1258 29.9459 23.1735C29.2773 23.3434 28.5714 23.4973 27.8231 23.6247C27.648 23.6566 27.4729 23.6883 27.2924 23.7149H27.2871C27.112 23.7415 26.9422 23.7733 26.7618 23.7945C26.0772 23.8954 25.3713 23.9749 24.639 24.0386C24.4638 24.0546 24.2887 24.0705 24.1083 24.0811H24.103C23.9279 24.0969 23.758 24.1076 23.5776 24.1182C22.8877 24.1607 22.1766 24.1872 21.4548 24.1926C21.2797 24.1979 21.1046 24.1979 20.9241 24.1979H20.9188C20.7384 24.1979 20.5686 24.1979 20.3935 24.1926C19.6717 24.1873 18.9606 24.1607 18.2706 24.1182C18.0902 24.1076 17.9151 24.097 17.74 24.0811H17.7347C17.5542 24.0705 17.3844 24.0546 17.2093 24.0386C16.4769 23.9749 15.7711 23.8954 15.0865 23.7945C14.906 23.7733 14.7309 23.7415 14.5558 23.7149H14.5505C14.3701 23.6883 14.2003 23.6566 14.0251 23.6247C13.2768 23.4973 12.571 23.3434 11.9023 23.1735C11.7219 23.1258 11.5415 23.078 11.3716 23.0302H11.3663C11.1859 22.9772 11.0161 22.9241 10.841 22.871C10.0555 22.6321 9.33907 22.3615 8.71815 22.0697C8.53242 21.9847 8.3573 21.8945 8.18748 21.7991C8.18748 21.7991 8.18218 21.7991 8.18218 21.7937C7.99645 21.7034 7.82133 21.6026 7.65681 21.4965C6.49992 20.7695 5.8418 19.931 5.8418 19.0447C5.8418 16.2002 12.5976 13.8915 20.9243 13.8915C29.251 13.8915 36.0011 16.2 36.0011 19.0446Z" fill="#FCD462"/>
<path d="M20.8765 22.7577C20.7268 22.7577 20.584 22.7575 20.4373 22.753C19.7385 22.7476 19.0507 22.7235 18.3591 22.6808C18.1897 22.6707 18.0298 22.6614 17.8702 22.6468L17.805 22.641H17.7782C17.6418 22.6323 17.5115 22.6202 17.3784 22.6082C16.5949 22.5398 15.9283 22.4631 15.2962 22.3698C15.1492 22.3519 15.0475 22.3351 14.9463 22.3187L14.6601 22.2746C14.5502 22.2568 14.282 22.2078 14.282 22.2078C13.5951 22.0906 12.9376 21.951 12.2563 21.7777C12.0972 21.7355 11.9242 21.6898 11.7615 21.6438L11.2583 21.4929C10.6602 21.3111 10.111 21.1114 9.6214 20.8981V20.8925L8.81844 20.5023L8.56391 20.359H8.55384C8.51494 20.3358 8.47581 20.3115 8.43645 20.2862C7.58006 19.748 7.28125 19.2826 7.28125 19.0447C7.28125 17.7357 12.4607 15.3315 20.9237 15.3315C29.3833 15.3315 34.5608 17.7357 34.5608 19.0447C34.5608 19.2814 34.2643 19.7429 33.429 20.2639C33.2518 20.3797 33.1278 20.4526 33.0106 20.5115L32.9328 20.5535C32.8016 20.6296 32.6611 20.6964 32.5133 20.7682C31.9871 21.0157 31.3356 21.2611 30.5797 21.4959C30.4417 21.5376 30.081 21.644 30.081 21.644C29.9178 21.6897 29.7498 21.7356 29.5766 21.7816C28.9096 21.951 28.2521 22.0907 27.5809 22.2051C27.4396 22.2309 27.3088 22.2545 27.1773 22.2755L26.8837 22.3209C26.7885 22.3366 26.6933 22.3526 26.5942 22.3642C25.9185 22.4632 25.2522 22.5398 24.5137 22.604C24.3606 22.6181 24.214 22.6315 24.0639 22.6411L23.972 22.6469C23.8124 22.6614 23.6575 22.6708 23.4932 22.6804C22.7968 22.7236 22.1092 22.7477 21.4441 22.7524C21.2643 22.7575 21.1136 22.7578 20.9613 22.7578C20.9489 22.7577 20.8903 22.7577 20.8765 22.7577Z" fill="#F6C358"/>
<path d="M8.71759 22.0696V26.1135C8.53186 26.0286 8.35673 25.9384 8.18692 25.8428C8.18692 25.8428 8.18161 25.8428 8.18161 25.8375C7.99588 25.7473 7.82076 25.6466 7.65625 25.5404V21.4965C7.82076 21.6025 7.99588 21.7034 8.18161 21.7937C8.18161 21.799 8.18692 21.799 8.18692 21.799C8.35673 21.8944 8.53186 21.9846 8.71759 22.0696Z" fill="#DC8744"/>
<path d="M11.9012 23.1734V27.2174C11.7208 27.1696 11.5403 27.1218 11.3705 27.0741H11.3652C11.1848 27.021 11.015 26.968 10.8398 26.9149V22.871C11.015 22.924 11.1848 22.9771 11.3652 23.0302H11.3705C11.5403 23.0778 11.7208 23.1257 11.9012 23.1734Z" fill="#DC8744"/>
<path d="M15.0867 23.7943V27.8383C14.9063 27.817 14.7312 27.7852 14.5561 27.7587H14.5508C14.3703 27.7321 14.2005 27.7003 14.0254 27.6684V23.6245C14.2005 23.6564 14.3703 23.6882 14.5508 23.7147H14.5561C14.7312 23.7413 14.9063 23.7731 15.0867 23.7943Z" fill="#DC8744"/>
<path d="M18.2703 24.118V28.162C18.0899 28.1514 17.9148 28.1408 17.7396 28.1248H17.7343C17.5539 28.1142 17.3841 28.0982 17.209 28.0823V24.0385C17.3841 24.0544 17.5539 24.0703 17.7343 24.0809H17.7396C17.9148 24.0967 18.0899 24.1074 18.2703 24.118Z" fill="#DC8744"/>
<path d="M21.4539 24.1923V28.2362C21.2788 28.2415 21.1037 28.2415 20.9232 28.2415H20.9179C20.7375 28.2415 20.5677 28.2415 20.3926 28.2362V24.1923C20.5677 24.1976 20.7375 24.1976 20.9179 24.1976H20.9232C21.1037 24.1976 21.2788 24.1976 21.4539 24.1923Z" fill="#DC8744"/>
<path d="M24.6395 24.0385V28.0823C24.4643 28.0982 24.2892 28.1142 24.1088 28.1248H24.1035C23.9284 28.1407 23.7586 28.1514 23.5781 28.162V24.118C23.7586 24.1074 23.9284 24.0968 24.1035 24.0809H24.1088C24.2891 24.0703 24.4643 24.0544 24.6395 24.0385Z" fill="#DC8744"/>
<path d="M27.8231 23.6245V27.6684C27.6479 27.7003 27.4728 27.7321 27.2924 27.7587H27.2871C27.112 27.7852 26.9421 27.817 26.7617 27.8383V23.7943C26.9421 23.7731 27.112 23.7413 27.2871 23.7147H27.2924C27.4728 23.6882 27.6479 23.6564 27.8231 23.6245Z" fill="#DC8744"/>
<path d="M31.0066 22.8709V26.9148C30.8315 26.968 30.6564 27.0209 30.476 27.0741H30.4707C30.3009 27.1218 30.1257 27.1695 29.9453 27.2173V23.1733C30.1257 23.1257 30.3009 23.0779 30.4707 23.03H30.476C30.6563 22.9771 30.8314 22.924 31.0066 22.8709Z" fill="#DC8744"/>
<path d="M34.1902 21.4858V25.5403C34.0257 25.6412 33.8506 25.7473 33.6596 25.8428C33.6596 25.8428 33.6543 25.8428 33.6543 25.8481C33.4898 25.9384 33.3146 26.0233 33.1289 26.1135V22.0696C33.3146 21.9793 33.4898 21.8944 33.6543 21.799C33.8453 21.7033 34.0204 21.5972 34.1902 21.4858Z" fill="#DC8744"/>
<path d="M30.1597 12.9115V16.9554C30.1597 17.8416 29.5069 18.6749 28.35 19.4073C28.1855 19.5081 28.0104 19.6142 27.8193 19.7098C27.8193 19.7098 27.814 19.7098 27.814 19.7151C27.6495 19.8053 27.4744 19.8903 27.2887 19.9804C26.6678 20.2723 25.9513 20.543 25.1659 20.7818C24.9907 20.8349 24.8155 20.8879 24.6352 20.941H24.6299C24.4601 20.9887 24.2849 21.0365 24.1045 21.0843C23.4359 21.2541 22.73 21.4079 21.9817 21.5354C21.8066 21.5672 21.6315 21.599 21.451 21.6256H21.4457C21.2706 21.6522 21.1008 21.6839 20.9204 21.7052C20.2358 21.806 19.5299 21.8857 18.7975 21.9493C18.6224 21.9652 18.4472 21.9812 18.2669 21.9918H18.2616C18.0864 22.0077 17.9166 22.0184 17.7362 22.029C17.0463 22.0714 16.3352 22.098 15.6134 22.1033C15.4383 22.1086 15.2631 22.1086 15.0827 22.1086H15.0774C14.897 22.1086 14.7272 22.1086 14.552 22.1033C13.8303 22.098 13.1192 22.0714 12.4292 22.029C12.2488 22.0184 12.0737 22.0078 11.8986 21.9918H11.8932C11.7128 21.9812 11.543 21.9652 11.3679 21.9493C10.6355 21.8856 9.92971 21.806 9.24506 21.7052C9.06463 21.684 8.88951 21.6522 8.71439 21.6256H8.70909C8.52866 21.5991 8.35884 21.5672 8.18372 21.5354C7.43542 21.4079 6.72963 21.2541 6.0609 21.0843C5.88047 21.0365 5.70005 20.9887 5.53023 20.941H5.52493C5.3445 20.8879 5.17468 20.8349 4.99956 20.7818C4.21413 20.543 3.49766 20.2723 2.87674 19.9804C2.69101 19.8956 2.51589 19.8053 2.34607 19.7098C2.34607 19.7098 2.34076 19.7098 2.34076 19.7045C2.15504 19.6143 1.97991 19.5135 1.8154 19.4073C0.658049 18.6802 0 17.8416 0 16.9554V12.9115H30.1597Z" fill="#F6C358"/>
<path d="M30.1597 12.9115C30.1597 13.7978 29.5069 14.631 28.35 15.3528C28.1802 15.4642 28.0051 15.5703 27.814 15.6659C27.6495 15.7614 27.4743 15.8463 27.2886 15.9365C26.6677 16.2284 25.9512 16.4938 25.1658 16.7379C24.9907 16.7909 24.8155 16.8441 24.6351 16.897H24.6298C24.46 16.9448 24.2849 16.9927 24.1044 17.0403C23.4358 17.2102 22.7299 17.3641 21.9816 17.4915C21.8065 17.5234 21.6314 17.5552 21.451 17.5817H21.4456C21.2705 17.6083 21.1007 17.6401 20.9203 17.6613C20.2357 17.7622 19.5298 17.8417 18.7975 17.9055C18.6223 17.9214 18.4471 17.9373 18.2668 17.9479H18.2615C18.0864 17.9637 17.9166 17.9744 17.7361 17.985C17.0462 18.0275 16.3351 18.0541 15.6133 18.0594C15.4382 18.0647 15.2631 18.0647 15.0826 18.0647H15.0773C14.8969 18.0647 14.7271 18.0647 14.552 18.0594C13.8302 18.0541 13.1191 18.0275 12.4291 17.985C12.2487 17.9744 12.0736 17.9638 11.8985 17.9479H11.8932C11.7127 17.9373 11.5429 17.9214 11.3678 17.9055C10.6354 17.8417 9.92963 17.7622 9.24498 17.6613C9.06456 17.6401 8.88943 17.6083 8.71431 17.5817H8.70901C8.52858 17.5552 8.35877 17.5234 8.18365 17.4915C7.43534 17.3641 6.72956 17.2102 6.06082 17.0403C5.88039 16.9927 5.69997 16.9448 5.53015 16.897H5.52485C5.34442 16.8441 5.17461 16.7909 4.99948 16.7379C4.21405 16.499 3.49758 16.2284 2.87666 15.9365C2.69093 15.8516 2.51581 15.7614 2.34599 15.6659C2.34599 15.6659 2.34069 15.6659 2.34069 15.6606C2.15496 15.5703 1.97984 15.4695 1.81532 15.3634C0.65805 14.6363 0 13.7978 0 12.9115C0 10.067 6.75577 7.75836 15.0825 7.75836C23.4092 7.75836 30.1597 10.067 30.1597 12.9115Z" fill="#FCD462"/>
<path d="M15.0365 16.6246C14.8853 16.6246 14.7417 16.6243 14.5935 16.6201C13.897 16.6145 13.2091 16.5903 12.5167 16.5479C12.3489 16.5378 12.1886 16.5285 12.0283 16.5137L11.9631 16.5079H11.9363C11.8 16.4992 11.6696 16.487 11.5365 16.475C10.753 16.4066 10.0864 16.33 9.45436 16.2366C9.30883 16.2188 9.20851 16.2024 9.10865 16.1863L8.81853 16.1418C8.7119 16.1244 8.44092 16.0747 8.44092 16.0747C7.75581 15.9583 7.09845 15.8186 6.41449 15.6446C6.25444 15.6024 6.08193 15.5568 5.91926 15.511L5.41727 15.3599C4.81918 15.178 4.26976 14.9786 3.77968 14.765V14.7594L2.97603 14.3687L2.72173 14.226H2.71212C2.67322 14.2028 2.63432 14.1786 2.59519 14.1536C1.73834 13.6147 1.43945 13.1493 1.43945 12.9116C1.43945 11.6027 6.6189 9.19843 15.0819 9.19843C23.5415 9.19843 28.719 11.6026 28.719 12.9116C28.719 13.1483 28.4225 13.6098 27.5872 14.1313C27.4102 14.2467 27.2857 14.3198 27.1688 14.3783L27.091 14.4203C26.9598 14.4965 26.8193 14.5633 26.6715 14.635C26.1453 14.8826 25.4938 15.1279 24.7379 15.3627L24.2392 15.5111C24.0765 15.5568 23.9092 15.6025 23.7366 15.6479C23.0654 15.8186 22.4079 15.9583 21.7395 16.0719C21.5945 16.0981 21.4604 16.1228 21.3261 16.1441L21.0394 16.1881C20.9449 16.2036 20.8505 16.2196 20.7523 16.231C20.0766 16.33 19.4103 16.4066 18.6717 16.4708C18.5198 16.4846 18.3725 16.4982 18.2222 16.5079L18.1301 16.5137C17.97 16.5282 17.8144 16.5378 17.6494 16.5477C16.9547 16.5903 16.2668 16.6145 15.6017 16.6194C15.4233 16.6243 15.2716 16.6246 15.1186 16.6246C15.1066 16.6246 15.0499 16.6246 15.0365 16.6246Z" fill="#F6C358"/>
<path d="M2.87579 15.9364V19.9804C2.69006 19.8955 2.51494 19.8053 2.34512 19.7097C2.34512 19.7097 2.33982 19.7097 2.33982 19.7044C2.15409 19.6142 1.97897 19.5134 1.81445 19.4073V15.3633C1.97897 15.4694 2.15409 15.5703 2.33982 15.6605C2.33982 15.6658 2.34512 15.6658 2.34512 15.6658C2.51494 15.7613 2.69006 15.8515 2.87579 15.9364Z" fill="#DC8744"/>
<path d="M6.05938 17.0403V21.0843C5.87896 21.0365 5.69853 20.9888 5.52871 20.9411H5.52341C5.34298 20.8879 5.17317 20.835 4.99805 20.7818V16.7379C5.17317 16.791 5.34298 16.8441 5.52341 16.897H5.52871C5.69853 16.9449 5.87896 16.9927 6.05938 17.0403Z" fill="#DC8744"/>
<path d="M9.24493 17.6612V21.7051C9.0645 21.6839 8.88938 21.6521 8.71426 21.6256H8.70896C8.52853 21.5991 8.35871 21.5672 8.18359 21.5353V17.4914C8.35871 17.5233 8.52853 17.555 8.70896 17.5816H8.71426C8.88938 17.6082 9.0645 17.6401 9.24493 17.6612Z" fill="#DC8744"/>
<path d="M12.4285 17.985V22.029C12.2481 22.0184 12.073 22.0078 11.8979 21.9918H11.8926C11.7121 21.9812 11.5423 21.9652 11.3672 21.9493V17.9054C11.5423 17.9213 11.7121 17.9372 11.8926 17.9478H11.8979C12.073 17.9637 12.248 17.9744 12.4285 17.985Z" fill="#DC8744"/>
<path d="M15.6121 18.0593V22.1032C15.437 22.1085 15.2619 22.1085 15.0814 22.1085H15.0761C14.8957 22.1085 14.7259 22.1085 14.5508 22.1032V18.0593C14.7259 18.0646 14.8957 18.0646 15.0761 18.0646H15.0814C15.2619 18.0646 15.437 18.0646 15.6121 18.0593Z" fill="#DC8744"/>
<path d="M18.7976 17.9054V21.9493C18.6225 21.9652 18.4473 21.9812 18.267 21.9918H18.2617C18.0866 22.0077 17.9168 22.0184 17.7363 22.029V17.985C17.9168 17.9744 18.0866 17.9637 18.2617 17.9478H18.267C18.4473 17.9372 18.6225 17.9214 18.7976 17.9054Z" fill="#DC8744"/>
<path d="M21.9813 17.4914V21.5353C21.8061 21.5672 21.631 21.599 21.4506 21.6256H21.4453C21.2702 21.6521 21.1003 21.6838 20.9199 21.7051V17.6612C21.1003 17.64 21.2702 17.6082 21.4453 17.5816H21.4506C21.631 17.5551 21.8061 17.5233 21.9813 17.4914Z" fill="#DC8744"/>
<path d="M25.1649 16.7378V20.7817C24.9897 20.8348 24.8145 20.8878 24.6342 20.9409H24.6289C24.4591 20.9887 24.2839 21.0364 24.1035 21.0842V17.0402C24.2839 16.9926 24.4591 16.9447 24.6289 16.8969H24.6342C24.8145 16.844 24.9897 16.7908 25.1649 16.7378Z" fill="#DC8744"/>
<path d="M28.3484 15.3527V19.4072C28.1839 19.508 28.0088 19.6141 27.8178 19.7097C27.8178 19.7097 27.8125 19.7097 27.8125 19.715C27.648 19.8052 27.4728 19.8902 27.2871 19.9804V15.9364C27.4728 15.8462 27.648 15.7613 27.8125 15.6658C28.0035 15.5702 28.1786 15.4641 28.3484 15.3527Z" fill="#DC8744"/>
<path d="M36.0011 6.77844V10.8224C36.0011 11.7086 35.3483 12.5418 34.1914 13.2742C34.0269 13.3751 33.8518 13.4812 33.6608 13.5767C33.6608 13.5767 33.6555 13.5767 33.6555 13.582C33.491 13.6723 33.3158 13.7572 33.1301 13.8474C32.5092 14.1393 31.7927 14.41 31.0073 14.6487C30.8322 14.7019 30.657 14.7548 30.4766 14.808H30.4713C30.3015 14.8557 30.1264 14.9034 29.9459 14.9513C29.2773 15.1211 28.5714 15.2749 27.8231 15.4024C27.648 15.4342 27.4729 15.466 27.2924 15.4926H27.2871C27.112 15.5191 26.9422 15.5509 26.7618 15.5722C26.0772 15.673 25.3713 15.7527 24.639 15.8162C24.4638 15.8322 24.2887 15.8481 24.1083 15.8588H24.103C23.9279 15.8747 23.758 15.8854 23.5776 15.896C22.8877 15.9383 22.1766 15.9649 21.4548 15.9702C21.2797 15.9755 21.1046 15.9755 20.9241 15.9755H20.9188C20.7384 15.9755 20.5686 15.9755 20.3935 15.9702C19.6717 15.9649 18.9606 15.9383 18.2706 15.896C18.0902 15.8854 17.9151 15.8747 17.74 15.8588H17.7347C17.5542 15.8481 17.3844 15.8322 17.2093 15.8162C16.4769 15.7526 15.7711 15.673 15.0865 15.5722C14.906 15.551 14.7309 15.5191 14.5558 15.4926H14.5505C14.3701 15.4661 14.2003 15.4342 14.0251 15.4024C13.2768 15.2749 12.571 15.1211 11.9023 14.9513C11.7219 14.9034 11.5415 14.8557 11.3716 14.808H11.3663C11.1859 14.7548 11.0161 14.7019 10.841 14.6487C10.0555 14.41 9.33907 14.1393 8.71815 13.8474C8.53242 13.7625 8.3573 13.6723 8.18748 13.5767C8.18748 13.5767 8.18218 13.5767 8.18218 13.5714C7.99645 13.4812 7.82133 13.3805 7.65681 13.2743C6.49992 12.5472 5.8418 11.7087 5.8418 10.8224V6.77844H36.0011Z" fill="#F6C358"/>
<path d="M36.0011 6.77845C36.0011 7.66474 35.3484 8.49791 34.1915 9.21969C34.0217 9.33108 33.8466 9.43724 33.6555 9.53288C33.4909 9.62836 33.3158 9.71323 33.1301 9.80348C32.5092 10.0954 31.7927 10.3607 31.0073 10.6048C30.8322 10.6579 30.657 10.711 30.4766 10.764H30.4713C30.3015 10.8118 30.1264 10.8597 29.9459 10.9073C29.2773 11.0772 28.5714 11.2311 27.8231 11.3585C27.648 11.3904 27.4729 11.4222 27.2924 11.4487H27.2871C27.112 11.4753 26.9422 11.5071 26.7618 11.5283C26.0772 11.6292 25.3713 11.7087 24.639 11.7725C24.4638 11.7884 24.2887 11.8043 24.1083 11.8149H24.103C23.9279 11.8307 23.758 11.8414 23.5776 11.852C22.8877 11.8946 22.1766 11.9211 21.4548 11.9264C21.2797 11.9317 21.1046 11.9317 20.9241 11.9317H20.9188C20.7384 11.9317 20.5686 11.9317 20.3935 11.9264C19.6717 11.9212 18.9606 11.8946 18.2706 11.852C18.0902 11.8414 17.9151 11.8308 17.74 11.8149H17.7347C17.5542 11.8043 17.3844 11.7884 17.2093 11.7725C16.4769 11.7087 15.7711 11.6292 15.0865 11.5283C14.906 11.5071 14.7309 11.4753 14.5558 11.4487H14.5505C14.3701 11.4222 14.2003 11.3904 14.0251 11.3585C13.2768 11.2311 12.571 11.0772 11.9023 10.9073C11.7219 10.8597 11.5415 10.8118 11.3716 10.764H11.3663C11.1859 10.7111 11.0161 10.6579 10.841 10.6048C10.0555 10.366 9.33907 10.0954 8.71815 9.80348C8.53242 9.71853 8.3573 9.62836 8.18748 9.53288C8.18748 9.53288 8.18218 9.53288 8.18218 9.52757C7.99645 9.43724 7.82133 9.33646 7.65681 9.23037C6.49992 8.50329 5.8418 7.66482 5.8418 6.77852C5.8418 3.934 12.5976 1.62537 20.9243 1.62537C29.251 1.62537 36.0011 3.93392 36.0011 6.77845Z" fill="#FCD462"/>
<path d="M20.8764 10.4916C20.7267 10.4916 20.5839 10.4914 20.4372 10.4869C19.7388 10.4813 19.0509 10.4572 18.3585 10.4147C18.1896 10.4047 18.0298 10.3951 17.8701 10.3805L17.8049 10.3747H17.7781C17.6418 10.366 17.5114 10.3539 17.3783 10.3419C16.5957 10.2735 15.9291 10.1968 15.2957 10.1037C15.1527 10.0861 15.0526 10.0695 14.9531 10.0536L14.6603 10.0086C14.5544 9.99147 14.282 9.94158 14.282 9.94158C13.5974 9.82512 12.94 9.68543 12.2563 9.51147C12.0962 9.46926 11.9237 9.4236 11.7615 9.37786L11.2567 9.22641C10.6609 9.04522 10.112 8.84558 9.62148 8.63202V8.62618L8.81852 8.23596L8.56399 8.09274H8.55368C8.51502 8.06976 8.47635 8.04562 8.43791 8.02079C7.58006 7.48174 7.28125 7.01626 7.28125 6.77833C7.28125 5.46939 12.4607 3.06512 20.9237 3.06512C29.3833 3.06512 34.5608 5.46931 34.5608 6.77833C34.5608 7.01503 34.2643 7.47651 33.429 7.99803C33.252 8.11334 33.1275 8.18645 33.0106 8.24503L32.9328 8.287C32.7992 8.36457 32.656 8.43253 32.5053 8.50594C31.9876 8.74925 31.3356 8.99464 30.5794 9.22972L30.0809 9.37786C29.9182 9.4236 29.7509 9.46926 29.5784 9.51469C28.9071 9.68536 28.2497 9.82504 27.5812 9.93866C27.4342 9.96541 27.3007 9.98978 27.1669 10.0108L26.8777 10.0554C26.7837 10.0708 26.6899 10.0865 26.5922 10.098C25.9177 10.197 25.2509 10.2733 24.5135 10.3376C24.3605 10.3516 24.2138 10.365 24.0637 10.3746L23.9719 10.3805C23.8123 10.395 23.6574 10.4046 23.493 10.4142C22.7965 10.4571 22.1086 10.4812 21.4434 10.4862C21.2641 10.4913 21.1134 10.4915 20.9611 10.4915C20.9488 10.4916 20.8902 10.4916 20.8764 10.4916Z" fill="#F6C358"/>
<path d="M8.71759 9.80339V13.8473C8.53186 13.7625 8.35673 13.6722 8.18692 13.5766C8.18692 13.5766 8.18161 13.5766 8.18161 13.5713C7.99588 13.4812 7.82076 13.3804 7.65625 13.2742V9.23029C7.82076 9.33637 7.99588 9.43723 8.18161 9.52748C8.18161 9.53279 8.18692 9.53279 8.18692 9.53279C8.35673 9.62827 8.53186 9.71852 8.71759 9.80339Z" fill="#DC8744"/>
<path d="M11.9012 10.9072V14.9512C11.7208 14.9034 11.5403 14.8557 11.3705 14.8079H11.3652C11.1848 14.7548 11.015 14.7018 10.8398 14.6487V10.6048C11.015 10.6578 11.1848 10.711 11.3652 10.764H11.3705C11.5403 10.8117 11.7208 10.8596 11.9012 10.9072Z" fill="#DC8744"/>
<path d="M15.0867 11.5282V15.5721C14.9063 15.5509 14.7312 15.519 14.5561 15.4925H14.5508C14.3703 15.466 14.2005 15.4341 14.0254 15.4023V11.3583C14.2005 11.3902 14.3703 11.422 14.5508 11.4485H14.5561C14.7312 11.4751 14.9063 11.507 15.0867 11.5282Z" fill="#DC8744"/>
<path d="M18.2703 11.8518V15.8959C18.0899 15.8852 17.9148 15.8746 17.7396 15.8586H17.7343C17.5539 15.848 17.3841 15.832 17.209 15.8161V11.7723C17.3841 11.7882 17.5539 11.8041 17.7343 11.8147H17.7396C17.9148 11.8306 18.0899 11.8412 18.2703 11.8518Z" fill="#DC8744"/>
<path d="M21.4539 11.9262V15.9701C21.2788 15.9754 21.1037 15.9754 20.9232 15.9754H20.9179C20.7375 15.9754 20.5677 15.9754 20.3926 15.9701V11.9262C20.5677 11.9315 20.7375 11.9315 20.9179 11.9315H20.9232C21.1037 11.9315 21.2788 11.9315 21.4539 11.9262Z" fill="#DC8744"/>
<path d="M24.6395 11.7724V15.8163C24.4643 15.8322 24.2892 15.8482 24.1088 15.8588H24.1035C23.9284 15.8747 23.7586 15.8854 23.5781 15.896V11.852C23.7586 11.8414 23.9284 11.8307 24.1035 11.8148H24.1088C24.2891 11.8041 24.4643 11.7883 24.6395 11.7724Z" fill="#DC8744"/>
<path d="M27.8231 11.3584V15.4023C27.6479 15.4342 27.4728 15.466 27.2924 15.4926H27.2871C27.112 15.5191 26.9421 15.5508 26.7617 15.5721V11.5281C26.9421 11.5069 27.112 11.4751 27.2871 11.4485H27.2924C27.4728 11.4221 27.6479 11.3902 27.8231 11.3584Z" fill="#DC8744"/>
<path d="M31.0066 10.6048V14.6487C30.8315 14.7018 30.6564 14.7548 30.476 14.8079H30.4707C30.3009 14.8557 30.1257 14.9034 29.9453 14.9512V10.9072C30.1257 10.8596 30.3009 10.8117 30.4707 10.7639H30.476C30.6563 10.711 30.8314 10.6578 31.0066 10.6048Z" fill="#DC8744"/>
<path d="M34.1902 9.21967V13.2742C34.0257 13.3751 33.8506 13.4812 33.6596 13.5767C33.6596 13.5767 33.6543 13.5767 33.6543 13.582C33.4898 13.6723 33.3146 13.7572 33.1289 13.8474V9.80345C33.3146 9.7132 33.4898 9.62833 33.6543 9.53285C33.8453 9.43714 34.0204 9.33106 34.1902 9.21967Z" fill="#DC8744"/>
</g>
<defs>
<clipPath id="clip0">
<rect width="36" height="36" fill="white"/>
</clipPath>
</defs>
</svg>
