<svg width="36" height="36" viewBox="0 0 36 36" fill="none" xmlns="http://www.w3.org/2000/svg">
<path d="M22.9309 19.3345V27.5004H13.1789L13.002 19.3345H22.9309Z" fill="#F8B64C"/>
<path d="M22.5029 26.9259L21.6856 35.9999H14.3138L13.4102 26.9259H22.5029Z" fill="#5790A7"/>
<path d="M19.1533 29.5035L19.9265 35.9978H16.0043L16.776 29.4959V29.4885L15.7344 28.4461L17.9684 26.218L20.2032 28.4461L19.1533 29.4959V29.5035Z" fill="#40596B"/>
<path d="M35.8919 31.5642V35.9962H21.6816L22.9265 22.2127L22.9341 22.1902L31.4456 25.2423C34.1079 26.203 35.8919 28.7303 35.8919 31.5642Z" fill="#194C80"/>
<path d="M14.3102 35.997H0.107422V31.6549C0.107422 28.8202 1.89149 26.2855 4.55444 25.3331L11.7844 22.7383L11.7919 22.7308L13.0661 22.2733L13.0736 22.2808L14.3102 35.997Z" fill="#194C80"/>
<g opacity="0.1">
<g opacity="0.1">
<path opacity="0.1" d="M22.9313 19.3345L22.9283 22.2105L18.6987 25.6218L15.2461 22.7347L17.4786 19.3345H22.9313Z" fill="#40596B"/>
</g>
</g>
<path d="M13.0773 13.5788C13.1867 14.835 12.5778 15.9149 11.7154 15.9906C10.8545 16.0656 10.0663 15.1087 9.95608 13.8518C9.84662 12.5957 10.4555 11.5158 11.3164 11.4409C12.1789 11.3651 12.967 12.3228 13.0773 13.5788Z" fill="#F8B64C"/>
<path d="M25.9797 13.8518C25.8702 15.108 25.0821 16.0656 24.2189 15.9899C23.358 15.9149 22.7483 14.835 22.8586 13.5789C22.968 12.3221 23.7562 11.3651 24.6179 11.4402C25.4803 11.5158 26.0892 12.5957 25.9797 13.8518Z" fill="#F8B64C"/>
<path d="M17.968 3.09045C13.9649 3.09045 10.7207 6.33539 10.7207 10.3377V12.514C10.7207 13.0689 10.7544 13.6239 10.825 14.1736V14.1758C11.1677 16.9911 12.3803 19.6285 14.2949 21.7223L14.9803 22.4752C15.6117 23.1674 16.5049 23.5619 17.4408 23.5619H18.4906C19.4265 23.5619 20.3197 23.1681 20.9511 22.4767L21.641 21.7223C23.5556 19.6285 24.7682 16.988 25.1139 14.1735C25.1828 13.6208 25.2151 13.0689 25.2151 12.514V10.3377C25.2152 6.33539 21.9695 3.09045 17.968 3.09045Z" fill="#FFD15C"/>
<path d="M17.9668 26.2151L22.929 22.188L22.1806 30.4469L17.9668 26.2151Z" fill="#F2F2F2"/>
<path d="M17.9621 26.2151L13.0703 22.2727L13.7467 30.4469L17.9621 26.2151Z" fill="#F2F2F2"/>
<path d="M28.2959 30.8443L25.7537 35.997H21.6816L22.934 22.1902L24.2081 22.6408L24.2171 22.6484L27.3953 25.933L24.8088 28.2953L28.2959 30.8443Z" fill="#113C67"/>
<path d="M14.31 35.997H10.2004L7.70312 30.935L11.1903 28.3771L8.60381 26.0155L11.7835 22.7376L11.791 22.7308L13.0651 22.2734V22.3034L14.31 35.997Z" fill="#113C67"/>
<path d="M20.2036 28.4461L17.9688 26.218L15.7363 28.4498L16.277 28.9897L17.9718 27.2882L19.6636 28.986L20.2036 28.4461Z" fill="#334A5E"/>
<g opacity="0.1">
<g opacity="0.1">
<path opacity="0.1" d="M24.7991 15.8084C24.9341 15.2707 25.0451 14.7277 25.1126 14.1728C25.1801 13.6291 25.2108 13.0847 25.2124 12.538V10.6107H14.3887L24.7991 15.8084Z" fill="#40596B"/>
</g>
</g>
<path d="M9.57812 7.73108C9.63964 8.84022 9.98231 9.71538 9.98231 9.71538C10.0408 11.6209 10.7555 12.1564 10.7555 12.1564C10.7555 12.1564 10.9197 11.3427 11.0982 10.7465C11.2639 10.2036 11.4101 9.65393 11.4837 9.09149C11.5377 8.67753 11.6329 8.19235 11.7972 7.73185H9.57812V7.73108Z" fill="#334A5E"/>
<path d="M23.3066 7.73017C23.7183 8.14336 24.01 8.67205 24.1121 9.25326C24.1488 9.45202 24.1968 9.66497 24.2688 9.87793C24.412 10.3062 24.5297 10.7433 24.5792 11.1933C24.6745 12.0437 25.1297 12.1922 25.1297 12.1922C25.5736 11.5518 25.9688 9.35218 25.9688 9.35218C26.1653 8.79052 26.2036 8.24902 26.1503 7.7301L23.3066 7.73017Z" fill="#334A5E"/>
<path d="M26.5839 10.6107H9.35064C8.74693 10.6107 8.74848 8.9729 9.35064 8.9729H26.5839C27.186 8.9729 27.1876 10.6107 26.5839 10.6107Z" fill="#FF7058"/>
<path d="M17.9678 0.443237C13.2561 0.443237 9.4375 4.26257 9.4375 8.97358H26.4983C26.4982 4.26257 22.6781 0.443237 17.9678 0.443237Z" fill="#FF7058"/>
<path d="M14.9131 9.64173H20.8952C21.2874 8.49435 21.6804 4.51078 22.0741 3.3634C22.6455 2.01502 20.8293 0.00449953 17.9038 0C14.9806 0.00527289 13.1628 2.01502 13.7335 3.3634C14.1279 4.51156 14.5201 8.49512 14.9131 9.64173Z" fill="#F1543F"/>
</svg>
